<?xml version="1.0" encoding="UTF-8"?>
<!-- Consolidated SVG sprite for all icons!  -->
<svg xmlns="http://www.w3.org/2000/svg" style="display:none;">
  <symbol id="icon-new-chat" viewBox="0 0 24 24">
    <path d="M15.6729 3.91287C16.8918 2.69392 18.8682 2.69392 20.0871 3.91287C21.3061 5.13182 21.3061 7.10813 20.0871 8.32708L14.1499 14.2643C13.3849 15.0293 12.3925 15.5255 11.3215 15.6785L9.14142 15.9899C8.82983 16.0344 8.51546 15.9297 8.29289 15.7071C8.07033 15.4845 7.96554 15.1701 8.01005 14.8586L8.32149 12.6785C8.47449 11.6075 8.97072 10.615 9.7357 9.85006L15.6729 3.91287ZM18.6729 5.32708C18.235 4.88918 17.525 4.88918 17.0871 5.32708L11.1499 11.2643C10.6909 11.7233 10.3932 12.3187 10.3014 12.9613L10.1785 13.8215L11.0386 13.6986C11.6812 13.6068 12.2767 13.3091 12.7357 12.8501L18.6729 6.91287C19.1108 6.47497 19.1108 5.76499 18.6729 5.32708ZM11 3.99929C11.0004 4.55157 10.5531 4.99963 10.0008 5.00007C9.00227 5.00084 8.29769 5.00827 7.74651 5.06064C7.20685 5.11191 6.88488 5.20117 6.63803 5.32695C6.07354 5.61457 5.6146 6.07351 5.32698 6.63799C5.19279 6.90135 5.10062 7.24904 5.05118 7.8542C5.00078 8.47105 5 9.26336 5 10.4V13.6C5 14.7366 5.00078 15.5289 5.05118 16.1457C5.10062 16.7509 5.19279 17.0986 5.32698 17.3619C5.6146 17.9264 6.07354 18.3854 6.63803 18.673C6.90138 18.8072 7.24907 18.8993 7.85424 18.9488C8.47108 18.9992 9.26339 19 10.4 19H13.6C14.7366 19 15.5289 18.9992 16.1458 18.9488C16.7509 18.8993 17.0986 18.8072 17.362 18.673C17.9265 18.3854 18.3854 17.9264 18.673 17.3619C18.7988 17.1151 18.8881 16.7931 18.9393 16.2535C18.9917 15.7023 18.9991 14.9977 18.9999 13.9992C19.0003 13.4469 19.4484 12.9995 20.0007 13C20.553 13.0004 21.0003 13.4485 20.9999 14.0007C20.9991 14.9789 20.9932 15.7808 20.9304 16.4426C20.8664 17.116 20.7385 17.7136 20.455 18.2699C19.9757 19.2107 19.2108 19.9756 18.27 20.455C17.6777 20.7568 17.0375 20.8826 16.3086 20.9421C15.6008 21 14.7266 21 13.6428 21H10.3572C9.27339 21 8.39925 21 7.69138 20.9421C6.96253 20.8826 6.32234 20.7568 5.73005 20.455C4.78924 19.9756 4.02433 19.2107 3.54497 18.2699C3.24318 17.6776 3.11737 17.0374 3.05782 16.3086C2.99998 15.6007 2.99999 14.7266 3 13.6428V10.3572C2.99999 9.27337 2.99998 8.39922 3.05782 7.69134C3.11737 6.96249 3.24318 6.3223 3.54497 5.73001C4.02433 4.7892 4.78924 4.0243 5.73005 3.54493C6.28633 3.26149 6.88399 3.13358 7.55735 3.06961C8.21919 3.00673 9.02103 3.00083 9.99922 3.00007C10.5515 2.99964 10.9996 3.447 11 3.99929Z"/>
  </symbol>

  <symbol id="icon-search" viewBox="0 0 24 24">
    <title>Suche</title>
    <path d="M19 10.5A8.5 8.5 0 1 1 10.5 2a8.5 8.5 0 0 1 8.5 8.5" fill="none" stroke="currentColor" stroke-linecap="round" stroke-linejoin="round" stroke-width="2"/>
    <line x1="16.511" y1="16.511" x2="22" y2="22" fill="none" stroke="currentColor" stroke-linecap="round" stroke-linejoin="round" stroke-width="2"/>
  </symbol>

  <symbol id="icon-for-you" viewBox="0 0 24 24">
    <path d="M22 23h-6.001a1 1 0 0 1-1-1v-5.455a2.997 2.997 0 1 0-5.993 0V22a1 1 0 0 1-1 1H2a1 1 0 0 1-1-1V11.543a1.002 1.002 0 0 1 .31-.724l10-9.543a1.001 1.001 0 0 1 1.38 0l10 9.543a1.002 1.002 0 0 1 .31.724V22a1 1 0 0 1-1 1Z"/>
  </symbol>

  <symbol id="icon-discover" viewBox="0 0 24 24">
    <title>Entdecke</title>
    <polygon fill="none" stroke="currentColor" stroke-linecap="round" stroke-linejoin="round" stroke-width="2" points="13.941 13.953 7.581 16.424 10.06 10.056 16.42 7.585 13.941 13.953"/>
    <polygon fill-rule="evenodd" points="10.06 10.056 13.949 13.945 7.581 16.424 10.06 10.056"/>
    <circle cx="12.001" cy="12.005" r="10.5" fill="none" stroke="currentColor" stroke-linecap="round" stroke-linejoin="round" stroke-width="2"/>
  </symbol>

  <symbol id="icon-direct" viewBox="0 0 24 24">
    <title>Direct</title>
    <line x1="22" y1="3" x2="9.218" y2="10.083" fill="none" stroke="currentColor" stroke-linejoin="round" stroke-width="2"/>
    <polygon fill="none" stroke="currentColor" stroke-linejoin="round" stroke-width="2" points="11.698 20.334 22 3.001 2 3.001 9.218 10.084 11.698 20.334"/>
  </symbol>

  <symbol id="icon-favorites" viewBox="0 0 24 24">
    <title>Benachrichtigungen</title>
    <path d="M16.792 3.904A4.989 4.989 0 0 1 21.5 9.122c0 3.072-2.652 4.959-5.197 7.222-2.512 2.243-3.865 3.469-4.303 3.752-.477-.309-2.143-1.823-4.303-3.752C5.141 14.072 2.5 12.167 2.5 9.122a4.989 4.989 0 0 1 4.708-5.218 4.21 4.21 0 0 1 3.675 1.941c.84 1.175.98 1.763 1.12 1.763s.278-.588 1.11-1.766a4.17 4.17 0 0 1 3.679-1.938m0-2a6.04 6.04 0 0 0-4.797 2.127 6.052 6.052 0 0 0-4.787-2.127A6.985 6.985 0 0 0 .5 9.122c0 3.61 2.55 5.827 5.015 7.97.283.246.569.494.853.747l1.027.918a44.998 44.998 0 0 0 3.518 3.018 2 2 0 0 0 2.174 0 45.263 45.263 0 0 0 3.626-3.115l.922-.824c.293-.26.59-.519.885-.774 2.334-2.025 4.98-4.32 4.98-7.94a6.985 6.985 0 0 0-6.708-7.218Z"/>
  </symbol>

  <symbol id="icon-create" viewBox="0 0 48 48">
    <path d="M25 15a1 1 0 0 1 1 1v6h6a1 1 0 0 1 1 1v2a1 1 0 0 1-1 1h-6v6a1 1 0 0 1-1 1h-2a1 1 0 0 1-1-1v-6h-6a1 1 0 0 1-1-1v-2a1 1 0 0 1 1-1h6v-6a1 1 0 0 1 1-1h2Z"/>
    <path d="M33.58 4.5H14.42c-1.33 0-2.45 0-3.37.07-.95.08-1.86.25-2.73.7a7 7 0 0 0-3.06 3.05 7.14 7.14 0 0 0-.69 2.73 44.6 44.6 0 0 0-.07 3.37v19.16c0 1.33 0 2.45.07 3.37.08.95.25 1.86.7 2.73a7 7 0 0 0 3.05 3.06c.87.44 1.78.6 2.73.69.92.07 2.04.07 3.37.07h19.16c1.33 0 2.45 0 3.37-.07a7.14 7.14 0 0 0 2.73-.7 7 7 0 0 0 3.06-3.05c.44-.87.6-1.78.69-2.73.07-.92.07-2.04.07-3.37V14.42c0-1.33 0-2.45-.07-3.37a7.14 7.14 0 0 0-.7-2.73 7 7 0 0 0-3.05-3.06 7.14 7.14 0 0 0-2.73-.69 44.6 44.6 0 0 0-3.37-.07ZM10.14 8.83c.2-.1.53-.21 1.24-.27.73-.06 1.69-.06 3.12-.06h19c1.43 0 2.39 0 3.12.06a3.3 3.3 0 0 1 1.24.27 3 3 0 0 1 1.31 1.3c.1.21.21.54.27 1.25.06.73.06 1.69.06 3.12v19c0 1.43 0 2.39-.06 3.12a3.3 3.3 0 0 1-.27 1.24 3 3 0 0 1-1.3 1.31c-.21.1-.54.21-1.25.27-.73.06-1.69.06-3.12.06h-19c-1.43 0-2.39 0-3.12-.06a3.3 3.3 0 0 1-1.24-.27 3 3 0 0 1-1.31-1.3c-.1-.21-.21-.54-.27-1.25-.06-.73-.06-1.69-.06-3.12v-19c0-1.43 0-2.39.06-3.12a3.3 3.3 0 0 1 .27-1.24 3 3 0 0 1 1.3-1.31Z"/>
  </symbol>

  <symbol id="icon-settings" viewBox="0 0 512 512">
    <path d="M495.9 166.6c3.2 8.7 .5 18.4-6.4 24.6l-43.3 39.4c1.1 8.3 1.7 16.8 1.7 25.4s-.6 17.1-1.7 25.4l43.3 39.4c6.9 6.2 9.6 15.9 6.4 24.6-4.4 11.9-9.7 23.3-15.8 34.3l-4.7 8.1c-6.6 11-14 21.4-22.1 31.2-5.9 7.2-15.7 9.6-24.5 6.8l-55.7-17.7c-13.4 10.3-28.2 18.9-44 25.4l-12.5 57.1c-2 9.1-9 16.3-18.2 17.8-13.8 2.3-28 3.5-42.5 3.5s-28.7-1.2-42.5-3.5c-9.2-1.5-16.2-8.7-18.2-17.8l-12.5-57.1c-15.8-6.5-30.6-15.1-44-25.4L83.1 425.9c-8.8 2.8-18.6.3-24.5-6.8-8.1-9.8-15.5-20.2-22.1-31.2l-4.7-8.1c-6.1-11-11.4-22.4-15.8-34.3-3.2-8.7-.5-18.4 6.4-24.6l43.3-39.4c1.1-8.3 1.7-16.8 1.7-25.4s-.6-17.1-1.7-25.4l-43.3-39.4c-6.9-6.2-9.6-15.9-6.4-24.6 4.4-11.9 9.7-23.3 15.8-34.3l4.7-8.1c6.6-11 14-21.4 22.1-31.2 5.9-7.2 15.7-9.6 24.5-6.8l55.7 17.7c13.4-10.3 28.2-18.9 44-25.4l12.5-57.1c2-9.1 9-16.3 18.2-17.8C227.3 1.2 241.5 0 256 0s28.7 1.2 42.5 3.5c9.2 1.5 16.2 8.7 18.2 17.8l12.5 57.1c15.8 6.5 30.6 15.1 44 25.4l55.7-17.7c8.8-2.8 18.6-.3 24.5 6.8 8.1 9.8 15.5 20.2 22.1 31.2l4.7 8.1c6.1 11 11.4 22.4 15.8 34.3zM256 336a80 80 0 1 0 0-160 80 80 0 1 0 0 160z"/>
  </symbol>

  <symbol id="icon-more" viewBox="0 0 24 24">
    <path d="M12 4a2 2 0 1 1 0 4 2 2 0 0 1 0-4zm0 8a2 2 0 1 1 0 4 2 2 0 0 1 0-4zm0 8a2 2 0 1 1 0 4 2 2 0 0 1 0-4z"/>
  </symbol>

  <symbol id="icon-profile" viewBox="0 0 48 48">
    <path fill-rule="evenodd" clip-rule="evenodd" d="M24.0003 7C20.1343 7 17.0003 10.134 17.0003 14C17.0003 17.866 20.1343 21 24.0003 21C27.8663 21 31.0003 17.866 31.0003 14C31.0003 10.134 27.8663 7 24.0003 7ZM13.0003 14C13.0003 7.92487 17.9252 3 24.0003 3C30.0755 3 35.0003 7.92487 35.0003 14C35.0003 20.0751 30.0755 25 24.0003 25C17.9252 25 13.0003 20.0751 13.0003 14ZM24.0003 33C18.0615 33 13.0493 36.9841 11.4972 42.4262C11.3457 42.9573 10.8217 43.3088 10.2804 43.1989L8.32038 42.8011C7.77914 42.6912 7.4266 42.1618 7.5683 41.628C9.49821 34.358 16.1215 29 24.0003 29C31.8792 29 38.5025 34.358 40.4324 41.628C40.5741 42.1618 40.2215 42.6912 39.6803 42.8011L37.7203 43.1989C37.179 43.3088 36.6549 42.9573 36.5035 42.4262C34.9514 36.9841 29.9391 33 24.0003 33Z"/>
  </symbol>

  <symbol id="secret" viewBox="0 0 24 24">
    <path d="M8.85719 3L13.5 3C14.0523 3 14.5 3.44772 14.5 4C14.5 4.55229 14.0523 5 13.5 5H11.5V19H15.1C16.2366 19 17.0289 18.9992 17.6458 18.9488C18.2509 18.8994 18.5986 18.8072 18.862 18.673C19.4265 18.3854 19.8854 17.9265 20.173 17.362C20.3072 17.0986 20.3994 16.7509 20.4488 16.1458C20.4992 15.5289 20.5 14.7366 20.5 13.6V11.5C20.5 10.9477 20.9477 10.5 21.5 10.5C22.0523 10.5 22.5 10.9477 22.5 11.5V13.6428C22.5 14.7266 22.5 15.6008 22.4422 16.3086C22.3826 17.0375 22.2568 17.6777 21.955 18.27C21.4757 19.2108 20.7108 19.9757 19.77 20.455C19.1777 20.7568 18.5375 20.8826 17.8086 20.9422C17.1008 21 16.2266 21 15.1428 21H8.85717C7.77339 21 6.89925 21 6.19138 20.9422C5.46253 20.8826 4.82234 20.7568 4.23005 20.455C3.28924 19.9757 2.52433 19.2108 2.04497 18.27C1.74318 17.6777 1.61737 17.0375 1.55782 16.3086C1.49998 15.6007 1.49999 14.7266 1.5 13.6428V10.3572C1.49999 9.27341 1.49998 8.39926 1.55782 7.69138C1.61737 6.96253 1.74318 6.32234 2.04497 5.73005C2.52433 4.78924 3.28924 4.02433 4.23005 3.54497C4.82234 3.24318 5.46253 3.11737 6.19138 3.05782C6.89926 2.99998 7.77341 2.99999 8.85719 3ZM9.5 19V5H8.9C7.76339 5 6.97108 5.00078 6.35424 5.05118C5.74907 5.10062 5.40138 5.19279 5.13803 5.32698C4.57354 5.6146 4.1146 6.07354 3.82698 6.63803C3.69279 6.90138 3.60062 7.24907 3.55118 7.85424C3.50078 8.47108 3.5 9.26339 3.5 10.4V13.6C3.5 14.7366 3.50078 15.5289 3.55118 16.1458C3.60062 16.7509 3.69279 17.0986 3.82698 17.362C4.1146 17.9265 4.57354 18.3854 5.13803 18.673C5.40138 18.8072 5.74907 18.8994 6.35424 18.9488C6.97108 18.9992 7.76339 19 8.9 19H9.5ZM5 8.5C5 7.94772 5.44772 7.5 6 7.5H7C7.55229 7.5 8 7.94772 8 8.5C8 9.05229 7.55229 9.5 7 9.5H6C5.44772 9.5 5 9.05229 5 8.5ZM5 12C5 11.4477 5.44772 11 6 11H7C7.55229 11 8 11.4477 8 12C8 12.5523 7.55229 13 7 13H6C5.44772 13 5 12.5523 5 12Z" fill="currentColor"/>
    <circle cx="20" cy="5" r="4" class="blue-circle"/>
  </symbol>
  <symbol id="icon-notifications" viewBox="0 0 24 24">
    <path clip-rule="evenodd" d="m13.497 4.898.053.8.694.4C15.596 6.878 16.5 8.334 16.5 10v2.892c0 .997.27 1.975.784 2.83L18.35 17.5H5.649l1.067-1.778c.513-.855.784-1.833.784-2.83V10c0-1.666.904-3.122 2.256-3.902l.694-.4.053-.8c.052-.78.703-1.398 1.497-1.398.794 0 1.445.618 1.497 1.398ZM6 10c0-2.224 1.21-4.165 3.007-5.201C9.11 3.236 10.41 2 12 2c1.59 0 2.89 1.236 2.993 2.799C16.79 5.835 18 7.776 18 10v2.892c0 .725.197 1.436.57 2.058l1.521 2.535c.4.667-.08 1.515-.857 1.515H15c0 .796-.316 1.559-.879 2.121-.562.563-1.325.879-2.121.879s-1.559-.316-2.121-.879C9.316 20.56 9 19.796 9 19H4.766c-.777 0-1.257-.848-.857-1.515L5.43 14.95c.373-.622.57-1.333.57-2.058V10Zm4.5 9c0 .398.158.78.44 1.06.28.282.662.44 1.06.44s.78-.158 1.06-.44c.282-.28.44-.662.44-1.06h-3Z" fill-rule="evenodd" stroke="currentColor" stroke-width="0.40"/>
  </symbol>
  <symbol id="icon-edit" viewBox="0 0 24 24">
  <path fill-rule="evenodd" clip-rule="evenodd" d="M13.2929 4.29291C15.0641 2.52167 17.9359 2.52167 19.7071 4.2929C21.4784 6.06414 21.4784 8.93588 19.7071 10.7071L18.7073 11.7069L11.6135 18.8007C10.8766 19.5376 9.92793 20.0258 8.89999 20.1971L4.16441 20.9864C3.84585 21.0395 3.52127 20.9355 3.29291 20.7071C3.06454 20.4788 2.96053 20.1542 3.01362 19.8356L3.80288 15.1C3.9742 14.0721 4.46243 13.1234 5.19932 12.3865L13.2929 4.29291ZM13 7.41422L6.61353 13.8007C6.1714 14.2428 5.87846 14.8121 5.77567 15.4288L5.21656 18.7835L8.57119 18.2244C9.18795 18.1216 9.75719 17.8286 10.1993 17.3865L16.5858 11L13 7.41422ZM18 9.5858L14.4142 6.00001L14.7071 5.70712C15.6973 4.71693 17.3027 4.71693 18.2929 5.70712C19.2831 6.69731 19.2831 8.30272 18.2929 9.29291L18 9.5858Z" fill="currentColor"/>
  </symbol>
  <symbol id="icon-like" viewBox="0 0 24 24">
  <path fill-rule="evenodd" clip-rule="evenodd" d="M12.1318 2.50389C12.3321 2.15338 12.7235 1.95768 13.124 2.00775L13.5778 2.06447C16.0449 2.37286 17.636 4.83353 16.9048 7.20993L16.354 8.99999H17.0722C19.7097 8.99999 21.6253 11.5079 20.9313 14.0525L19.5677 19.0525C19.0931 20.7927 17.5124 22 15.7086 22H6C4.34315 22 3 20.6568 3 19V12C3 10.3431 4.34315 8.99999 6 8.99999H8C8.25952 8.99999 8.49914 8.86094 8.6279 8.63561L12.1318 2.50389ZM10 20H15.7086C16.6105 20 17.4008 19.3964 17.6381 18.5262L19.0018 13.5262C19.3488 12.2539 18.391 11 17.0722 11H15C14.6827 11 14.3841 10.8494 14.1956 10.5941C14.0071 10.3388 13.9509 10.0092 14.0442 9.70591L14.9932 6.62175C15.3384 5.49984 14.6484 4.34036 13.5319 4.08468L10.3644 9.62789C10.0522 10.1742 9.56691 10.5859 9 10.8098V19C9 19.5523 9.44772 20 10 20ZM7 11V19C7 19.3506 7.06015 19.6872 7.17071 20H6C5.44772 20 5 19.5523 5 19V12C5 11.4477 5.44772 11 6 11H7Z" fill="currentColor"/>
  </symbol>
  <symbol id="icon-dislike" viewBox="0 0 24 24">
  <path fill-rule="evenodd" clip-rule="evenodd" d="M11.8727 21.4961C11.6725 21.8466 11.2811 22.0423 10.8805 21.9922L10.4267 21.9355C7.95958 21.6271 6.36855 19.1665 7.09975 16.7901L7.65054 15H6.93226C4.29476 15 2.37923 12.4921 3.0732 9.94753L4.43684 4.94753C4.91145 3.20728 6.49209 2 8.29589 2H18.0045C19.6614 2 21.0045 3.34315 21.0045 5V12C21.0045 13.6569 19.6614 15 18.0045 15H16.0045C15.745 15 15.5054 15.1391 15.3766 15.3644L11.8727 21.4961ZM14.0045 4H8.29589C7.39399 4 6.60367 4.60364 6.36637 5.47376L5.00273 10.4738C4.65574 11.746 5.61351 13 6.93226 13H9.00451C9.32185 13 9.62036 13.1506 9.8089 13.4059C9.99743 13.6612 10.0536 13.9908 9.96028 14.2941L9.01131 17.3782C8.6661 18.5002 9.35608 19.6596 10.4726 19.9153L13.6401 14.3721C13.9523 13.8258 14.4376 13.4141 15.0045 13.1902V5C15.0045 4.44772 14.5568 4 14.0045 4ZM17.0045 13V5C17.0045 4.64937 16.9444 4.31278 16.8338 4H18.0045C18.5568 4 19.0045 4.44772 19.0045 5V12C19.0045 12.5523 18.5568 13 18.0045 13H17.0045Z" fill="currentColor"/>
  </symbol>
  <symbol id="icon-copy" viewBox="0 0 24 24">
  <path fill-rule="evenodd" clip-rule="evenodd" d="M7 5C7 3.34315 8.34315 2 10 2H19C20.6569 2 22 3.34315 22 5V14C22 15.6569 20.6569 17 19 17H17V19C17 20.6569 15.6569 22 14 22H5C3.34315 22 2 20.6569 2 19V10C2 8.34315 3.34315 7 5 7H7V5ZM9 7H14C15.6569 7 17 8.34315 17 10V15H19C19.5523 15 20 14.5523 20 14V5C20 4.44772 19.5523 4 19 4H10C9.44772 4 9 4.44772 9 5V7ZM5 9C4.44772 9 4 9.44772 4 10V19C4 19.5523 4.44772 20 5 20H14C14.5523 20 15 19.5523 15 19V10C15 9.44772 14.5523 9 14 9H5Z" fill="currentColor"/>
  </symbol>
  <symbol id="icon-left-arrow" viewBox="0 0 24 24">
   <path fill-rule="evenodd" clip-rule="evenodd" d="M14.7071 5.29289C15.0976 5.68342 15.0976 6.31658 14.7071 6.70711L9.41421 12L14.7071 17.2929C15.0976 17.6834 15.0976 18.3166 14.7071 18.7071C14.3166 19.0976 13.6834 19.0976 13.2929 18.7071L7.29289 12.7071C7.10536 12.5196 7 12.2652 7 12C7 11.7348 7.10536 11.4804 7.29289 11.2929L13.2929 5.29289C13.6834 4.90237 14.3166 4.90237 14.7071 5.29289Z" fill="currentColor"/>
   </symbol>
    <symbol id="icon-right-arrow" viewBox="0 0 24 24">
   <path fill-rule="evenodd" clip-rule="evenodd" d="M9.29289 18.7071C8.90237 18.3166 8.90237 17.6834 9.29289 17.2929L14.5858 12L9.29289 6.70711C8.90237 6.31658 8.90237 5.68342 9.29289 5.29289C9.68342 4.90237 10.3166 4.90237 10.7071 5.29289L16.7071 11.2929C16.8946 11.4804 17 11.7348 17 12C17 12.2652 16.8946 12.5196 16.7071 12.7071L10.7071 18.7071C10.3166 19.0976 9.68342 19.0976 9.29289 18.7071Z" fill="currentColor"/>
   </symbol>
</svg> 
